<?xml version="1.0" encoding="UTF-8" standalone="no"?>
<svg
   xmlns:dc="http://purl.org/dc/elements/1.1/"
   xmlns:cc="http://creativecommons.org/ns#"
   xmlns:rdf="http://www.w3.org/1999/02/22-rdf-syntax-ns#"
   xmlns:svg="http://www.w3.org/2000/svg"
   xmlns="http://www.w3.org/2000/svg"
   viewBox="0 0 278 49.374802"
   height="49.374802"
   width="278"
   xml:space="preserve"
   id="svg2"
   version="1.1"><metadata
     id="metadata8"><rdf:RDF><cc:Work
         rdf:about=""><dc:format>image/svg+xml</dc:format><dc:type
           rdf:resource="http://purl.org/dc/dcmitype/StillImage" /></cc:Work></rdf:RDF></metadata><defs
     id="defs6"><clipPath
       id="clipPath20"
       clipPathUnits="userSpaceOnUse"><path
         id="path18"
         d="M 0,37.031 H 208.5 V 0 H 0 Z" /></clipPath></defs><g
     transform="matrix(1.3333333,0,0,-1.3333333,0,49.3748)"
     id="g10"><path
       id="path12"
       style="fill:#231f20;fill-opacity:1;fill-rule:nonzero;stroke:none"
       d="m 76.422,6.031 h 0.382 v 24.97 h -0.382 z" /><g
       id="g14"><g
         clip-path="url(#clipPath20)"
         id="g16"><g
           transform="translate(39.5718,28.3307)"
           id="g22"><path
             id="path24"
             style="fill:#f36b25;fill-opacity:1;fill-rule:nonzero;stroke:none"
             d="m 0,0 c 0.43,1.125 1.85,1.125 2.99,1.125 h 0.212 v 1.551 c 0,0 -4.444,-0.098 -5.804,-0.098 -1.399,0 -5.552,0.098 -5.552,0.098 V 1.125 h 0.212 c 1.14,0 2.56,0 2.988,-1.123 0.357,-0.964 0.357,-3.69 0.357,-4.854 v -9.907 c 0,-1.165 0,-3.89 -0.356,-4.853 -0.429,-1.124 -1.849,-1.124 -2.989,-1.124 h -0.212 v -1.552 c 0,0.004 3.592,0.153 5.559,0.153 2.264,0 5.797,-0.153 5.797,-0.153 v 1.552 H 2.99 c -1.14,0 -2.56,0 -2.989,1.122 -0.357,0.965 -0.357,3.69 -0.357,4.855 v 9.907 c 0,1.164 0,3.89 0.356,4.852" /></g><g
           transform="translate(46.144,30.9821)"
           id="g26"><path
             id="path28"
             style="fill:#f36b25;fill-opacity:1;fill-rule:nonzero;stroke:none"
             d="m 0,0 v -6.476 h 1.54 l 0.007,0.205 c 0.14,4.213 1.752,4.391 5.384,4.391 0.125,0 0.25,0 0.373,10e-4 0.903,0.006 1.755,0.012 2.09,-0.321 0.112,-0.112 0.167,-0.266 0.167,-0.47 v -17.021 c 0,-2.526 -0.354,-3.57 -3.911,-3.717 l -0.203,-0.008 v -1.543 c 0,0 4.147,0.152 6.546,0.152 1.831,0 5.921,-0.152 5.921,-0.152 v 1.543 l -0.204,0.008 c -3.557,0.147 -3.91,1.191 -3.91,3.717 V -2.67 c 0,0.176 0.053,0.314 0.163,0.422 0.41,0.403 1.54,0.387 2.448,0.373 0.172,-0.003 0.341,-0.005 0.501,-0.005 3.551,0 4.696,-1.027 4.903,-4.397 l 0.012,-0.199 h 1.529 V 0 c 0,0 -8.962,-0.059 -11.678,-0.059 C 8.962,-0.059 0,0 0,0" /></g><g
           transform="translate(11.1045,19.1579)"
           id="g30"><path
             id="path32"
             style="fill:#f36b25;fill-opacity:1;fill-rule:nonzero;stroke:none"
             d="m 0,0 c 0,0 -0.001,9.015 -0.002,9.067 -0.006,0.361 -0.016,0.852 0.284,0.992 0.208,0.091 2.214,0.018 2.323,0.018 3.162,0 4.977,-1.85 4.977,-5.075 C 7.582,2.651 6.957,1.303 5.556,0.626 4.25,-0.005 0,0 0,0 m 16.868,-11.564 c -1.791,0.281 -2.329,0.484 -3.505,1.844 l -7.371,8.462 c 3.882,0.506 6.275,3.073 6.275,6.779 0,2.413 -0.933,4.153 -2.768,5.173 -1.397,0.776 -3.337,1.153 -5.936,1.153 -0.777,-0.019 -2.648,-0.083 -4.709,-0.083 -2.137,0 -6.577,0.086 -6.577,0.086 v -1.551 h 0.308 c 1.177,0.008 2.501,0.002 2.853,-1.115 C -4.24,8.217 -4.24,5.49 -4.24,4.594 V -5.585 c 0,-1.124 0,-2.83 -0.149,-3.997 -0.044,-0.345 -0.101,-0.646 -0.174,-0.866 -0.36,-1.115 -1.795,-1.115 -2.949,-1.115 h -0.211 v -1.55 c 0,0 3.456,0.152 5.766,0.152 1.986,0 5.44,-0.148 5.44,-0.152 v 1.55 H 3.176 c -1.157,-0.004 -2.47,-10e-4 -2.853,1.117 -0.074,0.22 -0.13,0.521 -0.174,0.864 C 0,-8.425 0,-6.764 0,-5.856 v 4.161 C 1.379,-1.707 1.499,-1.853 2.208,-2.709 2.34,-2.867 2.49,-3.047 2.663,-3.247 l 6.152,-7.634 1.809,-2.232 c 0,0 1.983,0.084 2.947,0.084 1.401,0 3.476,-0.087 3.476,-0.087 v 1.524 z" /></g><g
           transform="translate(85.8975,26.3444)"
           id="g34"><path
             id="path36"
             style="fill:#231f20;fill-opacity:1;fill-rule:nonzero;stroke:none"
             d="M 0,0 H 2.19 C 3.299,0 3.884,0.511 3.884,1.432 3.884,2.38 3.27,2.848 2.219,2.848 H 0 Z M 1.723,-1.722 H 0 V -5.751 H -2.189 V 4.687 h 4.584 c 1.211,0 2.116,-0.351 2.73,-0.978 C 5.708,3.11 6.059,2.38 6.059,1.446 c 0,-1.461 -0.76,-2.482 -2.073,-2.92 L 6.599,-5.751 H 4.146 Z" /></g><g
           transform="translate(98.2627,24.3307)"
           id="g38"><path
             id="path40"
             style="fill:#231f20;fill-opacity:1;fill-rule:nonzero;stroke:none"
             d="M 0,0 C 0,1.46 -0.686,2.453 -1.898,2.453 -3.124,2.453 -3.796,1.46 -3.796,0 c 0,-1.46 0.672,-2.438 1.898,-2.438 C -0.686,-2.438 0,-1.46 0,0 m -5.81,0 c 0,2.232 1.591,3.956 3.912,3.956 2.321,0 3.913,-1.724 3.913,-3.956 0,-2.233 -1.592,-3.957 -3.913,-3.957 -2.321,0 -3.912,1.724 -3.912,3.957" /></g><g
           transform="translate(100.832,24.3307)"
           id="g42"><path
             id="path44"
             style="fill:#231f20;fill-opacity:1;fill-rule:nonzero;stroke:none"
             d="m 0,0 c 0,2.232 1.46,3.956 3.737,3.956 1.942,0 3.138,-1.124 3.402,-2.744 H 5.197 C 5.065,1.869 4.555,2.364 3.824,2.364 2.628,2.364 2.014,1.444 2.014,0 c 0,-1.417 0.57,-2.365 1.782,-2.365 0.802,0 1.372,0.423 1.503,1.269 H 7.211 C 7.081,-2.687 5.839,-3.957 3.839,-3.957 1.475,-3.957 0,-2.233 0,0" /></g><g
           transform="translate(110.8901,27.1042)"
           id="g46"><path
             id="path48"
             style="fill:#231f20;fill-opacity:1;fill-rule:nonzero;stroke:none"
             d="m 0,0 h 0.044 c 0.539,0.789 1.153,1.183 2.175,1.183 1.548,0 2.584,-1.168 2.584,-2.803 V -6.512 H 2.817 v 4.599 c 0,0.804 -0.466,1.373 -1.299,1.373 C 0.642,-0.54 0,-1.241 0,-2.264 V -6.512 H -1.986 V 3.927 H 0 Z" /></g><g
           transform="translate(118.5391,25.1481)"
           id="g50"><path
             id="path52"
             style="fill:#231f20;fill-opacity:1;fill-rule:nonzero;stroke:none"
             d="M 0,0 H 3.329 C 3.27,0.948 2.643,1.605 1.737,1.605 0.686,1.605 0.175,0.978 0,0 m -1.985,-0.804 c 0,2.22 1.503,3.943 3.693,3.943 2.409,0 3.693,-1.84 3.693,-4.512 h -5.43 c 0.146,-1.153 0.788,-1.868 1.912,-1.868 0.774,0 1.226,0.349 1.446,0.92 H 5.285 C 5.007,-3.65 3.825,-4.774 1.898,-4.774 c -2.482,0 -3.883,1.738 -3.883,3.97" /></g><g
           transform="translate(124.3926,23.0163)"
           id="g54"><path
             id="path56"
             style="fill:#231f20;fill-opacity:1;fill-rule:nonzero;stroke:none"
             d="m 0,0 h 1.839 c 0.132,-0.862 0.745,-1.241 1.636,-1.241 0.876,0 1.372,0.336 1.372,0.861 0,0.715 -0.949,0.789 -1.971,0.993 -1.343,0.263 -2.657,0.628 -2.657,2.263 0,1.62 1.343,2.395 3.052,2.395 1.97,0 3.065,-0.979 3.211,-2.482 H 4.687 C 4.599,3.591 4.088,3.883 3.241,3.883 2.468,3.883 1.957,3.591 1.957,3.051 1.957,2.409 2.949,2.352 4.015,2.131 5.271,1.869 6.658,1.519 6.658,-0.232 6.658,-1.737 5.373,-2.643 3.504,-2.643 1.329,-2.643 0.117,-1.592 0,0" /></g><g
           transform="translate(131.3564,28.0827)"
           id="g58"><path
             id="path60"
             style="fill:#231f20;fill-opacity:1;fill-rule:nonzero;stroke:none"
             d="M 0,0 H 1.037 V 2.336 H 2.978 V 0 H 4.263 V -1.314 H 2.978 v -3.971 c 0,-0.555 0.307,-0.744 0.745,-0.744 0.248,0 0.584,0.013 0.584,0.013 v -1.46 c 0,0 -0.453,-0.028 -1.241,-0.028 -0.964,0 -2.029,0.379 -2.029,1.796 v 4.394 H 0 Z" /></g><g
           transform="translate(138.1885,25.1481)"
           id="g62"><path
             id="path64"
             style="fill:#231f20;fill-opacity:1;fill-rule:nonzero;stroke:none"
             d="M 0,0 H 3.329 C 3.27,0.948 2.643,1.605 1.737,1.605 0.686,1.605 0.175,0.978 0,0 m -1.985,-0.804 c 0,2.22 1.503,3.943 3.693,3.943 2.409,0 3.693,-1.84 3.693,-4.512 h -5.43 c 0.146,-1.153 0.788,-1.868 1.912,-1.868 0.774,0 1.226,0.349 1.446,0.92 H 5.285 C 5.007,-3.65 3.825,-4.774 1.898,-4.774 c -2.482,0 -3.883,1.738 -3.883,3.97" /></g><g
           transform="translate(146.4214,26.8854)"
           id="g66"><path
             id="path68"
             style="fill:#231f20;fill-opacity:1;fill-rule:nonzero;stroke:none"
             d="m 0,0 h 0.044 c 0.453,0.847 0.963,1.285 1.839,1.285 0.219,0 0.35,-0.014 0.468,-0.058 V -0.512 H 2.307 C 1.007,-0.379 0.073,-1.065 0.073,-2.644 V -6.292 H -1.913 V 1.196 H 0 Z" /></g><path
           id="path70"
           style="fill:#231f20;fill-opacity:1;fill-rule:nonzero;stroke:none"
           d="m 152.26,31.031 h 2.117 V 20.593 h -2.117 z" /><g
           transform="translate(157.7788,27.0602)"
           id="g72"><path
             id="path74"
             style="fill:#231f20;fill-opacity:1;fill-rule:nonzero;stroke:none"
             d="m 0,0 h 0.044 c 0.511,0.803 1.197,1.227 2.219,1.227 1.548,0 2.584,-1.168 2.584,-2.804 v -4.89 H 2.861 v 4.598 c 0,0.804 -0.466,1.372 -1.299,1.372 -0.876,0 -1.518,-0.7 -1.518,-1.722 V -6.467 H -1.942 V 1.022 H 0 Z" /></g><g
           transform="translate(163.3843,23.0163)"
           id="g76"><path
             id="path78"
             style="fill:#231f20;fill-opacity:1;fill-rule:nonzero;stroke:none"
             d="m 0,0 h 1.839 c 0.132,-0.862 0.745,-1.241 1.636,-1.241 0.876,0 1.372,0.336 1.372,0.861 0,0.715 -0.949,0.789 -1.971,0.993 -1.343,0.263 -2.657,0.628 -2.657,2.263 0,1.62 1.343,2.395 3.051,2.395 1.971,0 3.066,-0.979 3.212,-2.482 H 4.687 C 4.599,3.591 4.088,3.883 3.241,3.883 2.468,3.883 1.957,3.591 1.957,3.051 1.957,2.409 2.949,2.352 4.015,2.131 5.271,1.869 6.657,1.519 6.657,-0.232 6.657,-1.737 5.373,-2.643 3.504,-2.643 1.329,-2.643 0.117,-1.592 0,0" /></g><g
           transform="translate(170.3477,28.0827)"
           id="g80"><path
             id="path82"
             style="fill:#231f20;fill-opacity:1;fill-rule:nonzero;stroke:none"
             d="M 0,0 H 1.037 V 2.336 H 2.979 V 0 H 4.263 V -1.314 H 2.979 v -3.971 c 0,-0.555 0.306,-0.744 0.744,-0.744 0.248,0 0.584,0.013 0.584,0.013 v -1.46 c 0,0 -0.453,-0.028 -1.241,-0.028 -0.964,0 -2.029,0.379 -2.029,1.796 v 4.394 H 0 Z" /></g><path
           id="path84"
           style="fill:#231f20;fill-opacity:1;fill-rule:nonzero;stroke:none"
           d="m 175.632,28.082 h 1.985 v -7.488 h -1.985 z m 0,2.949 h 1.985 V 29.25 h -1.985 z" /><g
           transform="translate(178.4639,28.0827)"
           id="g86"><path
             id="path88"
             style="fill:#231f20;fill-opacity:1;fill-rule:nonzero;stroke:none"
             d="M 0,0 H 1.037 V 2.336 H 2.979 V 0 H 4.263 V -1.314 H 2.979 v -3.971 c 0,-0.555 0.306,-0.744 0.744,-0.744 0.249,0 0.584,0.013 0.584,0.013 v -1.46 c 0,0 -0.453,-0.028 -1.241,-0.028 -0.963,0 -2.029,0.379 -2.029,1.796 v 4.394 H 0 Z" /></g><g
           transform="translate(188.4785,20.5934)"
           id="g90"><path
             id="path92"
             style="fill:#231f20;fill-opacity:1;fill-rule:nonzero;stroke:none"
             d="m 0,0 v 0.875 h -0.043 c -0.511,-0.687 -1.096,-1.08 -2.146,-1.08 -1.665,0 -2.599,1.065 -2.599,2.701 v 4.992 h 1.972 V 2.832 c 0,-0.876 0.393,-1.357 1.24,-1.357 0.934,0 1.504,0.7 1.504,1.692 V 7.488 H 1.912 V 0 Z" /></g><g
           transform="translate(191.2373,28.0827)"
           id="g94"><path
             id="path96"
             style="fill:#231f20;fill-opacity:1;fill-rule:nonzero;stroke:none"
             d="M 0,0 H 1.036 V 2.336 H 2.978 V 0 H 4.263 V -1.314 H 2.978 v -3.971 c 0,-0.555 0.307,-0.744 0.745,-0.744 0.248,0 0.583,0.013 0.583,0.013 v -1.46 c 0,0 -0.452,-0.028 -1.241,-0.028 -0.963,0 -2.029,0.379 -2.029,1.796 v 4.394 H 0 Z" /></g><g
           transform="translate(198.0693,25.1481)"
           id="g98"><path
             id="path100"
             style="fill:#231f20;fill-opacity:1;fill-rule:nonzero;stroke:none"
             d="M 0,0 H 3.329 C 3.271,0.948 2.644,1.605 1.737,1.605 0.687,1.605 0.176,0.978 0,0 m -1.985,-0.804 c 0,2.22 1.504,3.943 3.694,3.943 2.408,0 3.693,-1.84 3.693,-4.512 h -5.431 c 0.146,-1.153 0.789,-1.868 1.913,-1.868 0.773,0 1.225,0.349 1.445,0.92 H 5.285 C 5.008,-3.65 3.825,-4.774 1.898,-4.774 c -2.482,0 -3.883,1.738 -3.883,3.97" /></g><g
           transform="translate(88.9927,9.7321)"
           id="g102"><path
             id="path104"
             style="fill:#231f20;fill-opacity:1;fill-rule:nonzero;stroke:none"
             d="M 0,0 C 0,1.46 -0.686,2.453 -1.898,2.453 -3.125,2.453 -3.796,1.46 -3.796,0 c 0,-1.46 0.671,-2.438 1.898,-2.438 C -0.686,-2.438 0,-1.46 0,0 m -5.811,0 c 0,2.232 1.592,3.957 3.913,3.957 2.321,0 3.913,-1.725 3.913,-3.957 0,-2.233 -1.592,-3.956 -3.913,-3.956 -2.321,0 -3.913,1.723 -3.913,3.956" /></g><g
           transform="translate(91.3428,13.484)"
           id="g106"><path
             id="path108"
             style="fill:#231f20;fill-opacity:1;fill-rule:nonzero;stroke:none"
             d="m 0,0 h 1.022 v 0.672 c 0,1.825 1.416,2.467 3.328,2.263 V 1.401 C 3.416,1.445 3.007,1.329 3.007,0.555 V 0 H 4.35 V -1.372 H 3.007 V -7.489 H 1.022 v 6.117 H 0 Z" /></g><g
           transform="translate(98.6704,16.4333)"
           id="g110"><path
             id="path112"
             style="fill:#231f20;fill-opacity:1;fill-rule:nonzero;stroke:none"
             d="m 0,0 h 8.395 v -1.781 h -3.14 v -8.657 H 3.139 v 8.657 H 0 Z" /></g><g
           transform="translate(107.9116,10.5495)"
           id="g114"><path
             id="path116"
             style="fill:#231f20;fill-opacity:1;fill-rule:nonzero;stroke:none"
             d="M 0,0 H 3.329 C 3.27,0.948 2.643,1.605 1.737,1.605 0.686,1.605 0.175,0.979 0,0 m -1.985,-0.804 c 0,2.22 1.503,3.943 3.693,3.943 2.409,0 3.694,-1.839 3.694,-4.511 h -5.431 c 0.146,-1.153 0.788,-1.869 1.912,-1.869 0.774,0 1.227,0.35 1.446,0.92 h 1.956 c -0.277,-1.328 -1.46,-2.452 -3.387,-2.452 -2.482,0 -3.883,1.737 -3.883,3.969" /></g><g
           transform="translate(113.8677,9.7321)"
           id="g118"><path
             id="path120"
             style="fill:#231f20;fill-opacity:1;fill-rule:nonzero;stroke:none"
             d="m 0,0 c 0,2.232 1.46,3.957 3.737,3.957 1.942,0 3.139,-1.124 3.402,-2.745 H 5.197 C 5.066,1.869 4.555,2.364 3.825,2.364 2.628,2.364 2.015,1.445 2.015,0 c 0,-1.416 0.569,-2.365 1.781,-2.365 0.803,0 1.372,0.423 1.503,1.269 H 7.212 C 7.081,-2.687 5.84,-3.956 3.839,-3.956 1.475,-3.956 0,-2.233 0,0" /></g><g
           transform="translate(123.9258,12.5055)"
           id="g122"><path
             id="path124"
             style="fill:#231f20;fill-opacity:1;fill-rule:nonzero;stroke:none"
             d="m 0,0 h 0.044 c 0.54,0.789 1.153,1.184 2.175,1.184 1.548,0 2.584,-1.168 2.584,-2.805 v -4.89 H 2.818 v 4.598 c 0,0.805 -0.467,1.372 -1.3,1.372 C 0.643,-0.541 0,-1.241 0,-2.263 V -6.511 H -1.985 V 3.927 H 0 Z" /></g><g
           transform="translate(131.896,12.4616)"
           id="g126"><path
             id="path128"
             style="fill:#231f20;fill-opacity:1;fill-rule:nonzero;stroke:none"
             d="m 0,0 h 0.044 c 0.511,0.803 1.197,1.228 2.219,1.228 1.548,0 2.584,-1.168 2.584,-2.805 v -4.89 H 2.862 v 4.598 c 0,0.805 -0.467,1.372 -1.3,1.372 -0.875,0 -1.518,-0.7 -1.518,-1.722 V -6.467 H -1.941 V 1.022 H 0 Z" /></g><g
           transform="translate(143.4146,9.7321)"
           id="g130"><path
             id="path132"
             style="fill:#231f20;fill-opacity:1;fill-rule:nonzero;stroke:none"
             d="M 0,0 C 0,1.46 -0.686,2.453 -1.898,2.453 -3.125,2.453 -3.796,1.46 -3.796,0 c 0,-1.46 0.671,-2.438 1.898,-2.438 C -0.686,-2.438 0,-1.46 0,0 m -5.811,0 c 0,2.232 1.592,3.957 3.913,3.957 2.321,0 3.913,-1.725 3.913,-3.957 0,-2.233 -1.592,-3.956 -3.913,-3.956 -2.321,0 -3.913,1.723 -3.913,3.956" /></g><path
           id="path134"
           style="fill:#231f20;fill-opacity:1;fill-rule:nonzero;stroke:none"
           d="m 146.377,16.433 h 1.986 V 5.995 h -1.986 z" /><g
           transform="translate(155.1221,9.7321)"
           id="g136"><path
             id="path138"
             style="fill:#231f20;fill-opacity:1;fill-rule:nonzero;stroke:none"
             d="M 0,0 C 0,1.46 -0.686,2.453 -1.898,2.453 -3.125,2.453 -3.796,1.46 -3.796,0 c 0,-1.46 0.671,-2.438 1.898,-2.438 C -0.686,-2.438 0,-1.46 0,0 m -5.811,0 c 0,2.232 1.592,3.957 3.913,3.957 2.321,0 3.913,-1.725 3.913,-3.957 0,-2.233 -1.592,-3.956 -3.913,-3.956 -2.321,0 -3.913,1.723 -3.913,3.956" /></g><g
           transform="translate(163.0928,10.068)"
           id="g140"><path
             id="path142"
             style="fill:#231f20;fill-opacity:1;fill-rule:nonzero;stroke:none"
             d="m 0,0 c 0,1.095 -0.584,2.028 -1.781,2.028 -1.008,0 -1.679,-0.788 -1.679,-2.043 0,-1.27 0.671,-2.014 1.693,-2.014 C -0.511,-2.029 0,-1.11 0,0 m -5.241,-4.292 h 1.97 c 0.161,-0.468 0.584,-0.833 1.504,-0.833 1.124,0 1.664,0.541 1.664,1.562 v 0.818 h -0.043 c -0.438,-0.496 -1.007,-0.876 -1.957,-0.876 -1.664,0 -3.299,1.313 -3.299,3.578 0,2.232 1.343,3.664 3.241,3.664 0.934,0 1.62,-0.365 2.073,-0.993 h 0.029 v 0.788 h 1.913 v -6.919 c 0,-1.053 -0.336,-1.768 -0.891,-2.278 -0.628,-0.584 -1.591,-0.847 -2.701,-0.847 -2.043,0 -3.299,0.876 -3.503,2.336" /></g><g
           transform="translate(166.3916,5.1042)"
           id="g144"><path
             id="path146"
             style="fill:#231f20;fill-opacity:1;fill-rule:nonzero;stroke:none"
             d="m 0,0 h 0.701 c 0.788,0 1.109,0.409 1.109,1.021 0,0.41 -0.146,0.892 -0.569,2.03 L -0.774,8.379 H 1.314 L 2.423,5.007 C 2.657,4.321 2.905,3.372 2.905,3.372 h 0.029 c 0,0 0.205,0.949 0.438,1.635 l 1.051,3.372 h 2 L 3.81,0.701 C 3.241,-0.964 2.686,-1.562 1.168,-1.562 H 0 Z" /></g></g></g></g></svg>